<svg xmlns="http://www.w3.org/2000/svg" version="1.1" xmlnsXlink="http://www.w3.org/1999/xlink" xmlnsSvgjs="http://svgjs.dev/svgjs" width="2000" height="282" viewBox="0 0 2000 282"><g transform="matrix(1,0,0,1,-1.2121212121212466,0.4237948936412863)"><svg viewBox="0 0 396 56" data-background-color="#ffffff" preserveAspectRatio="xMidYMid meet" height="282" width="2000" xmlns="http://www.w3.org/2000/svg" xmlnsXlink="http://www.w3.org/1999/xlink"><g id="tight-bounds" transform="matrix(1,0,0,1,0.2400000000000091,-0.084157851219544)"><svg viewBox="0 0 395.52 56.168315702439095" height="56.168315702439095" width="395.52"><g><svg viewBox="0 0 474.8201473369419 67.429833984375" height="56.168315702439095" width="395.52"><g><svg viewBox="0 0 474.8201473369419 67.429833984375" height="67.429833984375" width="474.8201473369419"><g id="textblocktransform"><svg viewBox="0 0 474.8201473369419 67.429833984375" height="67.429833984375" width="474.8201473369419" id="textblock"><g><svg viewBox="0 0 474.8201473369419 67.429833984375" height="67.429833984375" width="474.8201473369419"><g><svg><g></g><g></g></svg></g><g><svg><g><svg></svg></g><g></g></svg></g><g id="text-0"><svg viewBox="0 0 474.8201473369419 67.429833984375" height="67.429833984375" width="474.8201473369419"><g transform="matrix(1,0,0,1,0,0)"><svg width="365.116552734375" viewBox="2.49 -32.64 225.64 41.67" height="67.429833984375" data-palette-color="#3c2c32"><path d="M16.46 0.24Q9.33 0.24 5.91-3.52 2.49-7.28 2.49-15.21L2.49-15.21Q2.49-30.66 16.53-30.66L16.53-30.66Q18.58-30.66 20.51-30.24 22.44-29.81 23.63-29.17 24.83-28.54 24.83-27.95L24.83-27.95Q24.83-27.59 24.57-26.98 24.32-26.37 23.97-25.9 23.63-25.44 23.36-25.44L23.36-25.44Q23.24-25.44 22.68-25.76L22.68-25.76Q21.41-26.44 20.02-26.9 18.63-27.37 16.63-27.37L16.63-27.37Q11.38-27.37 8.9-24.45 6.42-21.53 6.42-15.16L6.42-15.16Q6.42-8.94 8.87-5.99 11.33-3.05 16.46-3.05L16.46-3.05Q18.6-3.05 20.14-3.56 21.68-4.08 23.1-4.83L23.1-4.83Q23.78-5.2 23.93-5.2L23.93-5.2Q24.19-5.2 24.55-4.74 24.9-4.27 25.17-3.7 25.44-3.13 25.44-2.88L25.44-2.88Q25.44-2.27 24.21-1.53 22.97-0.78 20.91-0.27 18.85 0.24 16.46 0.24L16.46 0.24ZM39.33 0.24Q34.42 0.24 31.85-2.7 29.27-5.64 29.27-11.25L29.27-11.25Q29.27-16.87 31.88-19.91 34.49-22.95 39.33-22.95L39.33-22.95Q44.11-22.95 46.65-19.93 49.19-16.92 49.19-11.25L49.19-11.25Q49.19-5.62 46.69-2.69 44.19 0.24 39.33 0.24L39.33 0.24ZM39.21-2.88Q42.38-2.88 43.89-4.94 45.41-7.01 45.41-11.33L45.41-11.33Q45.41-15.67 43.89-17.75 42.38-19.82 39.21-19.82L39.21-19.82Q36.06-19.82 34.57-17.76 33.08-15.7 33.08-11.33L33.08-11.33Q33.08-6.98 34.56-4.93 36.03-2.88 39.21-2.88L39.21-2.88ZM62.25 0.24Q59.71 0.24 57.81-1.23 55.9-2.71 54.87-5.35 53.83-7.98 53.83-11.33L53.83-11.33Q53.83-15.01 54.94-17.64 56.05-20.26 58.05-21.61 60.05-22.95 62.67-22.95L62.67-22.95Q64.55-22.95 66-22.39 67.45-21.83 68.87-20.75L68.87-20.75 68.87-31.69Q68.87-32.64 70.58-32.64L70.58-32.64 70.77-32.64Q72.5-32.64 72.5-31.69L72.5-31.69 72.5-6.42Q72.5-3.59 72.77-2.33 73.04-1.07 73.04-0.95L73.04-0.95Q73.04-0.42 72.22-0.18 71.41 0.05 70.7 0.05L70.7 0.05Q70.21 0.05 69.92-0.42 69.62-0.88 69.51-1.35 69.4-1.83 69.16-3L69.16-3Q66.06 0.24 62.25 0.24L62.25 0.24ZM63.01-2.91Q64.45-2.91 66-3.69 67.55-4.47 68.87-5.91L68.87-5.91 68.87-17.8Q66.52-19.75 63.52-19.75L63.52-19.75Q60.62-19.68 59.14-17.63 57.66-15.58 57.66-11.67L57.66-11.67Q57.66-7.47 59.04-5.19 60.42-2.91 63.01-2.91L63.01-2.91ZM89.15 0.24Q83.76 0.24 81.13-2.58 78.51-5.4 78.51-11.21L78.51-11.21Q78.51-16.97 81.07-19.96 83.64-22.95 88.62-22.95L88.62-22.95Q93.06-22.95 95.32-20.07 97.58-17.19 97.58-11.62L97.58-11.62Q97.58-11.38 97.32-10.95 97.06-10.52 96.71-10.19 96.35-9.86 96.11-9.86L96.11-9.86 82.41-9.86Q82.68-6.23 84.28-4.55 85.88-2.88 89.1-2.88L89.1-2.88Q90.91-2.88 92.22-3.32 93.52-3.76 94.74-4.39L94.74-4.39Q94.87-4.44 95.11-4.57 95.35-4.69 95.45-4.69L95.45-4.69Q95.72-4.69 96.07-4.26 96.43-3.83 96.68-3.31 96.94-2.78 96.94-2.54L96.94-2.54Q96.94-2 95.87-1.34 94.79-0.68 93-0.22 91.2 0.24 89.15 0.24L89.15 0.24ZM82.41-12.99L93.69-12.99Q93.69-19.82 88.49-19.82L88.49-19.82Q82.9-19.82 82.41-12.99L82.41-12.99ZM105.19 0.07Q104.26 0.07 103.85-0.16 103.43-0.39 103.43-0.88L103.43-0.88 103.43-16.11Q103.43-18.95 103.16-20.2 102.9-21.46 102.9-21.58L102.9-21.58Q102.9-22.12 103.71-22.35 104.53-22.58 105.26-22.58L105.26-22.58Q105.85-22.58 106.14-21.96 106.44-21.34 106.66-20.21L106.66-20.21 106.78-19.7Q109.1-22.95 111.81-22.95L111.81-22.95Q113.05-22.95 113.69-22.5 114.32-22.05 114.32-21.29L114.32-21.29Q114.32-20.56 114.06-19.74 113.81-18.92 113.47-18.92L113.47-18.92Q113.3-18.92 112.86-19.07L112.86-19.07Q112.47-19.24 112.07-19.32 111.68-19.41 111.07-19.41L111.07-19.41Q110.07-19.41 109.18-18.82 108.29-18.24 107.68-17.53 107.07-16.82 107.07-16.75L107.07-16.75 107.07-0.88Q107.07-0.39 106.66-0.16 106.24 0.07 105.36 0.07L105.36 0.07 105.19 0.07ZM125.99 0.24Q123.6 0.24 121.53-0.28 119.47-0.81 118.24-1.55 117-2.29 117-2.91L117-2.91Q117-3.25 117.28-3.81 117.57-4.37 117.93-4.81 118.3-5.25 118.52-5.25L118.52-5.25Q118.71-5.25 119.37-4.86L119.37-4.86Q120.89-4.08 122.38-3.56 123.86-3.05 125.99-3.05L125.99-3.05Q127.65-3.05 128.94-3.69 130.24-4.32 130.96-5.48 131.68-6.64 131.68-8.15L131.68-8.15Q131.68-9.77 130.81-10.83 129.94-11.89 128.71-12.51 127.48-13.13 125.13-14.06L125.13-14.06Q122.59-15.04 121.12-15.88 119.64-16.72 118.6-18.33 117.57-19.95 117.57-22.61L117.57-22.61Q117.57-24.93 118.76-26.77 119.96-28.61 122.16-29.64 124.35-30.66 127.21-30.66L127.21-30.66Q128.5-30.66 130.16-30.31 131.82-29.96 133.01-29.35 134.19-28.74 134.19-28L134.19-28Q134.19-27.69 133.94-27.14 133.68-26.59 133.34-26.15 133-25.71 132.8-25.71L132.8-25.71Q132.58-25.71 131.92-26.07L131.92-26.07Q130.82-26.66 129.75-27.01 128.67-27.37 127.14-27.37L127.14-27.37Q124.62-27.37 123.07-26.07 121.52-24.78 121.52-22.46L121.52-22.46Q121.52-21.07 122.2-20.17 122.89-19.26 123.94-18.73 124.99-18.19 126.87-17.48L126.87-17.48Q126.99-17.46 127.43-17.29L127.43-17.29Q130.02-16.28 131.66-15.34 133.31-14.4 134.47-12.65 135.63-10.89 135.63-8.15L135.63-8.15Q135.63-5.59 134.45-3.69 133.26-1.78 131.08-0.77 128.89 0.24 125.99 0.24L125.99 0.24ZM142.59 9.03Q140.83 9.03 140.83 8.08L140.83 8.08 140.83-16.11Q140.83-18.95 140.56-20.2 140.29-21.46 140.29-21.58L140.29-21.58Q140.29-22.12 141.11-22.35 141.93-22.58 142.66-22.58L142.66-22.58Q143.27-22.58 143.56-21.92 143.86-21.26 143.99-20.58 144.13-19.9 144.17-19.7L144.17-19.7Q147.28-22.95 151.08-22.95L151.08-22.95Q153.7-22.95 155.6-21.46 157.5-19.97 158.51-17.33 159.51-14.7 159.51-11.33L159.51-11.33Q159.51-7.67 158.4-5.05 157.28-2.44 155.28-1.1 153.28 0.24 150.67 0.24L150.67 0.24Q148.79 0.24 147.34-0.32 145.88-0.88 144.47-1.95L144.47-1.95 144.47 8.08Q144.47 9.03 142.76 9.03L142.76 9.03 142.59 9.03ZM149.84-2.95Q152.74-3.03 154.21-5.08 155.67-7.13 155.67-11.04L155.67-11.04Q155.67-15.23 154.29-17.52 152.91-19.8 150.33-19.8L150.33-19.8Q148.89-19.8 147.34-19.02 145.79-18.24 144.47-16.8L144.47-16.8 144.47-4.91Q146.86-2.95 149.84-2.95L149.84-2.95ZM171.52 0.24Q168.2 0.24 166.14-1.39 164.09-3.03 164.09-6.25L164.09-6.25Q164.09-9.64 166.17-11.36 168.24-13.09 171.23-13.59 174.23-14.09 178.5-14.16L178.5-14.16 178.5-16.21Q178.5-17.85 177.39-18.84 176.28-19.82 173.74-19.82L173.74-19.82Q171.81-19.82 170.36-19.37 168.9-18.92 167.63-18.29L167.63-18.29Q167.1-18.02 166.97-18.02L166.97-18.02Q166.68-18.02 166.33-18.44 165.97-18.87 165.72-19.41 165.46-19.95 165.46-20.19L165.46-20.19Q165.46-20.75 166.62-21.41 167.78-22.07 169.66-22.51 171.54-22.95 173.59-22.95L173.59-22.95Q177.67-22.95 179.91-21.17 182.16-19.38 182.16-16.16L182.16-16.16 182.16-6.42Q182.16-3.59 182.42-2.33 182.67-1.07 182.67-0.95L182.67-0.95Q182.67-0.42 181.86-0.18 181.04 0.05 180.33 0.05L180.33 0.05Q179.74 0.05 179.46-0.61 179.18-1.27 178.91-2.51L178.91-2.51 178.82-3Q177.47-1.51 175.65-0.63 173.84 0.24 171.52 0.24L171.52 0.24ZM171.71-2.91Q173.86-2.91 175.37-3.69 176.89-4.47 178.5-5.91L178.5-5.91 178.5-11.04Q175.28-11.01 173.2-10.77 171.13-10.52 169.56-9.53 168-8.54 168-6.47L168-6.47Q168-4.74 168.94-3.82 169.88-2.91 171.71-2.91L171.71-2.91ZM198.56 0.24Q193.17 0.24 190.52-2.53 187.87-5.3 187.87-11.45L187.87-11.45Q187.87-17.68 190.82-20.31 193.78-22.95 198.17-22.95L198.17-22.95Q199.81-22.95 201.32-22.67 202.84-22.39 203.76-21.92 204.69-21.46 204.69-20.95L204.69-20.95Q204.69-20.61 204.46-20.04 204.23-19.48 203.9-19.06 203.57-18.63 203.3-18.63L203.3-18.63Q203.23-18.63 203.08-18.69 202.93-18.75 202.81-18.8L202.81-18.8Q200.61-19.82 198.08-19.82L198.08-19.82Q195.07-19.82 193.44-17.86 191.8-15.89 191.8-11.55L191.8-11.55Q191.8-8.47 192.46-6.58 193.12-4.69 194.6-3.78 196.07-2.88 198.54-2.88L198.54-2.88Q201.25-2.88 203.42-4L203.42-4Q203.64-4.05 203.75-4.11 203.86-4.17 203.91-4.17L203.91-4.17Q204.18-4.17 204.52-3.76 204.86-3.34 205.12-2.81 205.38-2.27 205.38-1.95L205.38-1.95Q205.38-1.44 204.45-0.93 203.52-0.42 201.95-0.09 200.37 0.24 198.56 0.24L198.56 0.24ZM219.7 0.24Q214.31 0.24 211.68-2.58 209.06-5.4 209.06-11.21L209.06-11.21Q209.06-16.97 211.62-19.96 214.19-22.95 219.17-22.95L219.17-22.95Q223.61-22.95 225.87-20.07 228.13-17.19 228.13-11.62L228.13-11.62Q228.13-11.38 227.87-10.95 227.61-10.52 227.26-10.19 226.91-9.86 226.66-9.86L226.66-9.86 212.97-9.86Q213.23-6.23 214.83-4.55 216.43-2.88 219.66-2.88L219.66-2.88Q221.46-2.88 222.77-3.32 224.07-3.76 225.29-4.39L225.29-4.39Q225.42-4.44 225.66-4.57 225.91-4.69 226-4.69L226-4.69Q226.27-4.69 226.63-4.26 226.98-3.83 227.24-3.31 227.49-2.78 227.49-2.54L227.49-2.54Q227.49-2 226.42-1.34 225.34-0.68 223.55-0.22 221.75 0.24 219.7 0.24L219.7 0.24ZM212.97-12.99L224.25-12.99Q224.25-19.82 219.04-19.82L219.04-19.82Q213.45-19.82 212.97-12.99L212.97-12.99Z" opacity="1" transform="matrix(1,0,0,1,0,0)" fill="#3c2c32" class="wordmark-text-0" data-fill-palette-color="primary"></path></svg></g><g><svg xmlns="http://www.w3.org/2000/svg" xmlnsXlink="http://www.w3.org/1999/xlink" version="1.1" x="381.03632812499995" y="0" viewBox="9.666 21.00033765356684 80.668 57.999662346433155" enable-background="new 0 0 100 100" xmlSpace="preserve" height="67.429833984375" width="93.78381921194192" class="icon-cg-0" data-fill-palette-color="accent" id="cg-0"><path d="M32.951 28.716c-0.781-0.781-2.047-0.781-2.828 0l-19.871 19.87C9.877 48.961 9.666 49.47 9.666 50s0.211 1.039 0.586 1.414l19.871 19.87c0.391 0.391 0.902 0.586 1.414 0.586s1.023-0.195 1.414-0.586c0.781-0.781 0.781-2.047 0-2.828L14.494 50l18.457-18.456C33.732 30.763 33.732 29.497 32.951 28.716zM89.748 48.586l-19.871-19.87c-0.781-0.781-2.047-0.781-2.828 0s-0.781 2.047 0 2.828L85.506 50 67.049 68.456c-0.781 0.781-0.781 2.047 0 2.828 0.391 0.391 0.902 0.586 1.414 0.586s1.023-0.195 1.414-0.586l19.871-19.87c0.375-0.375 0.586-0.884 0.586-1.414S90.123 48.961 89.748 48.586zM63.208 21.182c-1.002-0.458-2.191-0.021-2.651 0.985l-24.75 54c-0.46 1.004-0.02 2.19 0.985 2.651C37.062 78.941 37.345 79 37.624 79c0.758 0 1.482-0.433 1.819-1.167l24.75-54C64.653 22.829 64.213 21.643 63.208 21.182z" fill="#fbb168" data-fill-palette-color="accent"></path></svg></g></svg></g></svg></g></svg></g></svg></g><g></g></svg></g><defs></defs></svg><rect width="8.5" height="9" fill="none" stroke="none" visibility="hidden"></rect></g></svg></g></svg>